<svg width="97" height="21" viewBox="0 0 97 21" fill="none" xmlns="http://www.w3.org/2000/svg">
<path d="M16.9975 8.07031C16.9975 7.76897 16.6761 7.64844 16.435 7.60826L11.3926 6.875L9.13253 2.30469C9.04213 2.11384 8.87137 1.89286 8.64035 1.89286C8.40932 1.89286 8.23856 2.11384 8.14816 2.30469L5.88811 6.875L0.845703 7.60826C0.594587 7.64844 0.283203 7.76897 0.283203 8.07031C0.283203 8.25112 0.413783 8.42187 0.534319 8.55246L4.19057 12.1083L3.32673 17.1306C3.31669 17.2009 3.30664 17.2612 3.30664 17.3315C3.30664 17.5926 3.43722 17.8337 3.72852 17.8337C3.86914 17.8337 3.99972 17.7835 4.1303 17.7132L8.64035 15.3426L13.1504 17.7132C13.2709 17.7835 13.4116 17.8337 13.5522 17.8337C13.8435 17.8337 13.964 17.5926 13.964 17.3315C13.964 17.2612 13.964 17.2009 13.954 17.1306L13.0901 12.1083L16.7363 8.55246C16.8669 8.42187 16.9975 8.25112 16.9975 8.07031Z" fill="#F3761B"/>
<path d="M36.9975 8.07031C36.9975 7.76897 36.6761 7.64844 36.435 7.60826L31.3926 6.875L29.1325 2.30469C29.0421 2.11384 28.8714 1.89286 28.6403 1.89286C28.4093 1.89286 28.2386 2.11384 28.1482 2.30469L25.8881 6.875L20.8457 7.60826C20.5946 7.64844 20.2832 7.76897 20.2832 8.07031C20.2832 8.25112 20.4138 8.42187 20.5343 8.55246L24.1906 12.1083L23.3267 17.1306C23.3167 17.2009 23.3066 17.2612 23.3066 17.3315C23.3066 17.5926 23.4372 17.8337 23.7285 17.8337C23.8691 17.8337 23.9997 17.7835 24.1303 17.7132L28.6403 15.3426L33.1504 17.7132C33.2709 17.7835 33.4116 17.8337 33.5522 17.8337C33.8435 17.8337 33.964 17.5926 33.964 17.3315C33.964 17.2612 33.964 17.2009 33.954 17.1306L33.0901 12.1083L36.7363 8.55246C36.8669 8.42187 36.9975 8.25112 36.9975 8.07031Z" fill="#F3761B"/>
<path d="M56.9975 8.07031C56.9975 7.76897 56.6761 7.64844 56.435 7.60826L51.3926 6.875L49.1325 2.30469C49.0421 2.11384 48.8714 1.89286 48.6403 1.89286C48.4093 1.89286 48.2386 2.11384 48.1482 2.30469L45.8881 6.875L40.8457 7.60826C40.5946 7.64844 40.2832 7.76897 40.2832 8.07031C40.2832 8.25112 40.4138 8.42187 40.5343 8.55246L44.1906 12.1083L43.3267 17.1306C43.3167 17.2009 43.3066 17.2612 43.3066 17.3315C43.3066 17.5926 43.4372 17.8337 43.7285 17.8337C43.8691 17.8337 43.9997 17.7835 44.1303 17.7132L48.6403 15.3426L53.1504 17.7132C53.2709 17.7835 53.4116 17.8337 53.5522 17.8337C53.8435 17.8337 53.964 17.5926 53.964 17.3315C53.964 17.2612 53.964 17.2009 53.954 17.1306L53.0901 12.1083L56.7363 8.55246C56.8669 8.42187 56.9975 8.25112 56.9975 8.07031Z" fill="#F3761B"/>
<path d="M76.9975 8.07031C76.9975 7.76897 76.6761 7.64844 76.435 7.60826L71.3926 6.875L69.1325 2.30469C69.0421 2.11384 68.8714 1.89286 68.6403 1.89286C68.4093 1.89286 68.2386 2.11384 68.1482 2.30469L65.8881 6.875L60.8457 7.60826C60.5946 7.64844 60.2832 7.76897 60.2832 8.07031C60.2832 8.25112 60.4138 8.42187 60.5343 8.55246L64.1906 12.1083L63.3267 17.1306C63.3167 17.2009 63.3066 17.2612 63.3066 17.3315C63.3066 17.5926 63.4372 17.8337 63.7285 17.8337C63.8691 17.8337 63.9997 17.7835 64.1303 17.7132L68.6403 15.3426L73.1504 17.7132C73.2709 17.7835 73.4116 17.8337 73.5522 17.8337C73.8435 17.8337 73.964 17.5926 73.964 17.3315C73.964 17.2612 73.964 17.2009 73.954 17.1306L73.0901 12.1083L76.7363 8.55246C76.8669 8.42187 76.9975 8.25112 76.9975 8.07031Z" fill="#F3761B"/>
<path d="M96.9975 8.07031C96.9975 7.76897 96.6761 7.64844 96.435 7.60826L91.3926 6.875L89.1325 2.30469C89.0421 2.11384 88.8714 1.89286 88.6403 1.89286C88.4093 1.89286 88.2386 2.11384 88.1482 2.30469L85.8881 6.875L80.8457 7.60826C80.5946 7.64844 80.2832 7.76897 80.2832 8.07031C80.2832 8.25112 80.4138 8.42187 80.5343 8.55246L84.1906 12.1083L83.3267 17.1306C83.3167 17.2009 83.3066 17.2612 83.3066 17.3315C83.3066 17.5926 83.4372 17.8337 83.7285 17.8337C83.8691 17.8337 83.9997 17.7835 84.1303 17.7132L88.6403 15.3426L93.1504 17.7132C93.2709 17.7835 93.4116 17.8337 93.5522 17.8337C93.8435 17.8337 93.964 17.5926 93.964 17.3315C93.964 17.2612 93.964 17.2009 93.954 17.1306L93.0901 12.1083L96.7363 8.55246C96.8669 8.42187 96.9975 8.25112 96.9975 8.07031Z" fill="#F3761B"/>
</svg>
